<svg width="455" height="273" viewBox="0 0 455 273" fill="none" xmlns="http://www.w3.org/2000/svg">
<path d="M227.5 0C166.833 0 128.917 30.3333 113.75 91C136.5 60.6667 163.042 49.2917 193.375 56.875C210.684 61.1975 223.045 73.7479 236.752 87.6633C259.066 110.3 284.868 136.5 341.25 136.5C401.917 136.5 439.833 106.167 455 45.5C432.25 75.8333 405.708 87.2083 375.375 79.625C358.066 75.3025 345.705 62.7521 331.998 48.8367C309.703 26.2004 283.901 0 227.5 0ZM113.75 136.5C53.0833 136.5 15.1667 166.833 0 227.5C22.75 197.167 49.2917 185.792 79.625 193.375C96.934 197.697 109.295 210.248 123.002 224.163C145.316 246.8 171.118 273 227.5 273C288.167 273 326.083 242.667 341.25 182C318.5 212.333 291.958 223.708 261.625 216.125C244.316 211.802 231.955 199.252 218.248 185.337C195.953 162.7 170.151 136.5 113.75 136.5Z" fill="#38BDF8"/>
</svg>
