<svg width="94" height="94" viewBox="0 0 94 94" fill="none" xmlns="http://www.w3.org/2000/svg">
<path d="M4.40625 0C1.96617 0 0 1.96617 0 4.40625V89.5938C0 92.0338 1.96617 94 4.40625 94H89.5938C92.0338 94 94 92.0338 94 89.5938V4.40625C94 1.96617 92.0338 0 89.5938 0H4.40625ZM72.4113 38.1875C74.8083 38.1875 76.9312 38.3324 78.7838 38.6223C80.5311 38.8841 82.2457 39.3304 83.8989 39.9539V49.5811C83.1054 49.0323 82.2622 48.5589 81.3805 48.1672C80.4712 47.758 79.5325 47.4176 78.5723 47.1488C76.7533 46.642 74.8752 46.3786 72.9871 46.3655C71.8121 46.3655 70.7428 46.4752 69.7793 46.7023C68.9206 46.886 68.0968 47.206 67.3393 47.6502C66.6734 48.0575 66.1642 48.5471 65.8 49.115C65.4336 49.6874 65.243 50.3546 65.2517 51.0342C65.2517 51.8018 65.4593 52.4951 65.8627 53.1061C66.27 53.7171 66.8497 54.2968 67.5978 54.8451C68.3458 55.3934 69.2545 55.9261 70.3238 56.4509C71.393 56.9797 72.6033 57.5241 73.9506 58.0803C75.7914 58.8518 77.4442 59.6743 78.9091 60.5399C80.3739 61.4094 81.6312 62.3925 82.6808 63.4892C83.7305 64.5819 84.5295 65.8313 85.0857 67.2374C85.6418 68.6435 85.9238 70.2768 85.9238 72.145C85.9238 74.7183 85.4343 76.8842 84.4629 78.631C83.5139 80.3538 82.1519 81.814 80.4992 82.8806C78.7179 84.0101 76.7435 84.8015 74.6752 85.2149C72.4583 85.6849 70.1201 85.9199 67.6643 85.9199C65.2474 85.9305 62.8347 85.7155 60.4577 85.2776C58.4011 84.9219 56.4066 84.2716 54.5357 83.3467V73.0458C58.0755 76.0582 62.5659 77.7229 67.2139 77.7458C68.5182 77.7458 69.6579 77.6283 70.6293 77.3933C71.6045 77.1583 72.4153 76.8293 73.0693 76.4142C73.7195 75.9912 74.2052 75.4977 74.5302 74.9258C74.8895 74.26 75.053 73.5061 75.0017 72.7513C74.9504 71.9965 74.6865 71.2716 74.2404 70.6606C73.6585 69.8905 72.9467 69.2278 72.1372 68.7023C71.1331 68.0367 70.076 67.4551 68.9764 66.9633C67.6731 66.3681 66.3582 65.7987 65.0323 65.2556C61.4368 63.7555 58.7578 61.9186 56.9914 59.7527C55.2289 57.5867 54.3438 54.9665 54.3438 51.8998C54.3438 49.4949 54.8255 47.4308 55.789 45.7036C56.7525 43.9763 58.0607 42.5546 59.7213 41.4383C61.4778 40.2796 63.4278 39.4452 65.4788 38.9748C67.7504 38.4392 70.0775 38.1749 72.4113 38.1875ZM13.2188 38.9238H50.6738V47.4073H37.2318V85.1875H26.5903V47.4073H13.2188V38.9238Z" fill="#3178C6"/>
</svg>
